<svg width="512" height="512" viewBox="0 0 512 512" fill="none" xmlns="http://www.w3.org/2000/svg">
<path d="M438.857 182.857C422.685 182.905 406.987 188.317 394.22 198.244C381.454 208.171 372.342 222.053 368.311 237.714H289.975C287.385 227.402 282.56 217.786 275.84 209.546C269.12 201.306 260.671 194.644 251.091 190.033C241.51 185.422 231.033 182.973 220.402 182.861C209.77 182.749 199.243 184.977 189.568 189.385L131.474 116.791C141.03 104.241 146.231 88.9164 146.286 73.1429C146.286 58.6766 141.996 44.5352 133.959 32.5069C125.922 20.4786 114.499 11.1037 101.133 5.5677C87.7683 0.0316914 73.0617 -1.41678 58.8734 1.40545C44.6851 4.22768 31.6523 11.1939 21.4231 21.4231C11.1939 31.6523 4.22768 44.6851 1.40545 58.8734C-1.41678 73.0617 0.0316914 87.7683 5.5677 101.133C11.1037 114.499 20.4786 125.922 32.5069 133.959C44.5352 141.996 58.6766 146.286 73.1429 146.286C83.4537 146.262 93.6405 144.036 103.022 139.758L161.097 212.352C151.497 224.878 146.295 240.219 146.295 256C146.295 271.781 151.497 287.122 161.097 299.648L103.022 372.242C93.6405 367.964 83.4537 365.738 73.1429 365.714C58.6766 365.714 44.5352 370.004 32.5069 378.041C20.4786 386.078 11.1037 397.501 5.5677 410.867C0.0316914 424.232 -1.41678 438.938 1.40545 453.127C4.22768 467.315 11.1939 480.348 21.4231 490.577C31.6523 500.806 44.6851 507.772 58.8734 510.595C73.0617 513.417 87.7683 511.968 101.133 506.432C114.499 500.896 125.922 491.521 133.959 479.493C141.996 467.465 146.286 453.323 146.286 438.857C146.232 423.083 141.031 407.758 131.474 395.209L189.55 322.615C199.226 327.027 209.754 329.257 220.388 329.146C231.022 329.036 241.502 326.588 251.084 321.977C260.667 317.365 269.118 310.702 275.839 302.461C282.56 294.219 287.386 284.6 289.975 274.286H368.311C371.754 287.498 378.833 299.48 388.744 308.872C398.655 318.263 411.001 324.687 424.38 327.415C437.758 330.143 451.634 329.064 464.43 324.302C477.227 319.54 488.432 311.286 496.773 300.476C505.114 289.666 510.256 276.734 511.617 263.148C512.978 249.562 510.502 235.867 504.47 223.617C498.438 211.368 489.093 201.055 477.495 193.85C465.897 186.645 452.511 182.837 438.857 182.857ZM36.5715 73.1429C36.5715 65.9097 38.7163 58.839 42.7349 52.8249C46.7534 46.8107 52.465 42.1233 59.1476 39.3553C65.8301 36.5873 73.1834 35.863 80.2776 37.2742C87.3718 38.6853 93.8882 42.1684 99.0028 47.283C104.117 52.3976 107.6 58.914 109.012 66.0081C110.423 73.1023 109.698 80.4556 106.93 87.1382C104.162 93.8207 99.475 99.5324 93.4609 103.551C87.4467 107.569 80.376 109.714 73.1429 109.714C63.4465 109.705 54.15 105.848 47.2937 98.9921C40.4373 92.1357 36.5811 82.8393 36.5715 73.1429ZM73.1429 475.429C65.9097 475.429 58.839 473.284 52.8249 469.265C46.8107 465.247 42.1233 459.535 39.3553 452.852C36.5873 446.17 35.863 438.817 37.2742 431.722C38.6853 424.628 42.1684 418.112 47.283 412.997C52.3976 407.883 58.914 404.4 66.0081 402.988C73.1023 401.577 80.4556 402.302 87.1382 405.07C93.8207 407.838 99.5324 412.525 103.551 418.539C107.569 424.553 109.714 431.624 109.714 438.857C109.705 448.553 105.848 457.85 98.9921 464.706C92.1357 471.563 82.8393 475.419 73.1429 475.429ZM219.429 292.571C212.195 292.571 205.125 290.427 199.111 286.408C193.096 282.389 188.409 276.678 185.641 269.995C182.873 263.313 182.149 255.959 183.56 248.865C184.971 241.771 188.454 235.255 193.569 230.14C198.683 225.025 205.2 221.542 212.294 220.131C219.388 218.72 226.741 219.444 233.424 222.212C240.106 224.98 245.818 229.668 249.837 235.682C253.855 241.696 256 248.767 256 256C255.99 265.696 252.134 274.993 245.278 281.849C238.421 288.706 229.125 292.562 219.429 292.571ZM438.857 292.571C431.624 292.571 424.553 290.427 418.539 286.408C412.525 282.389 407.838 276.678 405.07 269.995C402.302 263.313 401.577 255.959 402.988 248.865C404.4 241.771 407.883 235.255 412.997 230.14C418.112 225.025 424.628 221.542 431.722 220.131C438.817 218.72 446.17 219.444 452.852 222.212C459.535 224.98 465.247 229.668 469.265 235.682C473.284 241.696 475.429 248.767 475.429 256C475.419 265.696 471.563 274.993 464.706 281.849C457.85 288.706 448.553 292.562 438.857 292.571Z" fill="#0369A1"/>
</svg>
